/* XPM */
static char *left_ptr[] = {
/* columns rows colors chars-per-pixel */
"32 32 115 2 ",
"   c black",
".  c #010101",
"X  c #020202",
"o  c gray1",
"O  c #040404",
"+  c gray2",
"@  c #060606",
"#  c #070707",
"$  c gray3",
"%  c #090909",
"&  c gray4",
"*  c #0B0B0B",
"=  c #0C0C0C",
"-  c gray5",
";  c gray6",
":  c #101010",
">  c #111111",
",  c gray7",
"<  c gray8",
"1  c #151515",
"2  c gray9",
"3  c #181818",
"4  c #191919",
"5  c gray10",
"6  c #1B1B1B",
"7  c gray11",
"8  c #1D1D1D",
"9  c #1E1E1E",
"0  c #202020",
"q  c #282828",
"w  c gray17",
"e  c #2C2C2C",
"r  c gray20",
"t  c #353535",
"y  c #373737",
"u  c gray24",
"i  c #3F3F3F",
"p  c gray25",
"a  c #434343",
"s  c #494949",
"d  c #4B4B4B",
"f  c #4C4C4C",
"g  c #505050",
"h  c #5B5B5B",
"j  c gray36",
"k  c #5D5D5D",
"l  c gray38",
"z  c gray39",
"x  c #656565",
"c  c gray40",
"v  c #686868",
"b  c #6A6A6A",
"n  c #6C6C6C",
"m  c gray44",
"M  c gray46",
"N  c gray47",
"B  c #797979",
"V  c #7B7B7B",
"C  c #7E7E7E",
"Z  c gray51",
"A  c #838383",
"S  c gray56",
"D  c #909090",
"F  c gray57",
"G  c gray59",
"H  c #9D9D9D",
"J  c gray62",
"K  c gray63",
"L  c gray64",
"P  c gray65",
"I  c #AAAAAA",
"U  c gray68",
"Y  c gray70",
"T  c gray71",
"R  c #B6B6B6",
"E  c #B7B7B7",
"W  c gray73",
"Q  c gray75",
"!  c #C0C0C0",
"~  c #C3C3C3",
"^  c #C5C5C5",
"/  c #C6C6C6",
"(  c gray78",
")  c gray79",
"_  c #CECECE",
"`  c gray83",
"'  c #D7D7D7",
"]  c #DADADA",
"[  c gray86",
"{  c gray87",
"}  c #DFDFDF",
"|  c gray88",
" . c #E1E1E1",
".. c gray89",
"X. c #E6E6E6",
"o. c #E7E7E7",
"O. c gray91",
"+. c #E9E9E9",
"@. c gray92",
"#. c #ECECEC",
"$. c gray93",
"%. c #EEEEEE",
"&. c #EFEFEF",
"*. c gray94",
"=. c #F1F1F1",
"-. c gray95",
";. c #F3F3F3",
":. c #F4F4F4",
">. c gray96",
",. c #F6F6F6",
"<. c gray97",
"1. c #F8F8F8",
"2. c #F9F9F9",
"3. c #FEFEFE",
"4. c None",
/* pixels */
"4.4.4.Z -.1.1.4.4.4.4.4.4.4.4.4.4.4.4.4.4.4.4.4.4.4.4.4.4.4.4.4.",
"4.4.4.] 1.-.1.1.&.4.4.4.4.4.4.4.4.4.4.4.4.4.4.4.4.4.4.4.4.4.4.4.",
"4.4.4. .-.v c ] -.-.4.4.4.4.4.4.4.4.4.4.4.4.4.4.4.4.4.4.4.4.4.4.",
"4.4.3 ( -.g , 3 F &.-.&.4.4.4.4.4.4.4.4.4.4.4.4.4.4.4.4.4.4.4.4.",
"4.4., P &.M % O % u ( -.1.] 4.4.4.4.4.4.4.4.4.4.4.4.4.4.4.4.4.4.",
"4.4.4.C -.H % O O O % M  .-.-.4.4.4.4.4.4.4.4.4.4.4.4.4.4.4.4.4.",
"4.4.4.d &.( % O O O O % e P -.-.] 4.4.4.4.4.4.4.4.4.4.4.4.4.4.4.",
"4.4.4.3 &.&.3 O O O O O O % g ) -.-.4.4.4.4.4.4.4.4.4.4.4.4.4.4.",
"4.4.4.3 ` &.u O O O O O O O O , Z &.-. .4.4.4.4.4.4.4.4.4.4.4.4.",
"4.4.4., R -.c % O O O O O O O O % r W -. .4.4.4.4.4.4.4.4.4.4.4.",
"4.4.4.4.F -.F % O O O O O O O O O O 3 H -.4.4.4.4.4.4.4.4.4.4.4.",
"4.4.4.4.c -.W , O O O v d , O O O % u (  .4.4.4.4.4.4.4.4.4.4.4.",
"4.4.4.4.e -.] , O O % F &.( v 0 e F &.] c 4.4.4.4.4.4.4.4.4.4.4.",
"4.4.4.4.3  .&.r O O % C -.&.-.]  .&.U 0 4.4.4.4.4.4.4.4.4.4.4.4.",
"4.4.4.4.3 ( -.h O O O h &.H S ) ( h , 4.4.4.4.4.4.4.4.4.4.4.4.4.",
"4.4.4.4., P &.Z O O % d &.R 3 , , 4.4.4.4.4.4.4.4.4.4.4.4.4.4.4.",
"4.4.4.4.4.C -.U , % u ( -.F 4.4.4.4.4.4.4.4.4.4.4.4.4.4.4.4.4.4.",
"4.4.4.4.4.a -. .u Z  .&.R 4.4.4.4.4.4.4.4.4.4.4.4.4.4.4.4.4.4.4.",
"4.4.4.4.4.3  .-.-.-. .C 4.4.4.4.4.4.4.4.4.4.4.4.4.4.4.4.4.4.4.4.",
"4.4.4.4.4.% c ] -.W u 4.4.4.4.4.4.4.4.4.4.4.4.4.4.4.4.4.4.4.4.4.",
"4.4.4.4.4.4., 3 3 , 4.4.4.4.4.4.4.4.4.4.4.4.4.4.4.4.4.4.4.4.4.4.",
"4.4.4.4.4.4.4.4.4.4.4.4.4.4.4.4.4.4.4.4.4.4.4.4.4.4.4.4.4.4.4.4.",
"4.4.4.4.4.4.4.4.4.4.4.4.4.4.4.4.4.4.4.4.4.4.4.4.4.4.4.4.4.4.4.4.",
"4.4.4.4.4.4.4.4.4.4.4.4.4.4.4.4.4.4.4.4.4.4.4.4.4.4.4.4.4.4.4.4.",
"4.4.4.4.4.4.4.4.4.4.4.4.4.4.4.4.4.4.4.4.4.4.4.4.4.4.4.4.4.4.4.4.",
"4.4.4.4.4.4.4.4.4.4.4.4.4.4.4.4.4.4.4.4.4.4.4.4.4.4.4.4.4.4.4.4.",
"4.4.4.4.4.4.4.4.4.4.4.4.4.4.4.4.4.4.4.4.4.4.4.4.4.4.4.4.4.4.4.4.",
"4.4.4.4.4.4.4.4.4.4.4.4.4.4.4.4.4.4.4.4.4.4.4.4.4.4.4.4.4.4.4.4.",
"4.4.4.4.4.4.4.4.4.4.4.4.4.4.4.4.4.4.4.4.4.4.4.4.4.4.4.4.4.4.4.4.",
"4.4.4.4.4.4.4.4.4.4.4.4.4.4.4.4.4.4.4.4.4.4.4.4.4.4.4.4.4.4.4.4.",
"4.4.4.4.4.4.4.4.4.4.4.4.4.4.4.4.4.4.4.4.4.4.4.4.4.4.4.4.4.4.4.4.",
"4.4.4.4.4.4.4.4.4.4.4.4.4.4.4.4.4.4.4.4.4.4.4.4.4.4.4.4.4.4.4.4."
};
