/* XPM */
static char *RedCursor_32[] = {
/* columns rows colors chars-per-pixel */
"32 32 219 2 ",
"   c black",
".  c #020201",
"X  c #050504",
"o  c #060604",
"O  c #10100C",
"+  c #15150F",
"@  c #24241B",
"#  c #27271E",
"$  c #48363C",
"%  c #453E3D",
"&  c #602A2E",
"*  c #62383F",
"=  c #404130",
"-  c #444433",
";  c #474734",
":  c #484835",
">  c #4C4C38",
",  c #68483E",
"<  c #4E4F42",
"1  c #524449",
"2  c #524948",
"3  c #58494F",
"4  c #5A5447",
"5  c #5A5748",
"6  c #4F5252",
"7  c #5C5555",
"8  c #5D5756",
"9  c #5F5656",
"0  c #665348",
"q  c #685E4F",
"w  c #605556",
"e  c #625559",
"r  c #67555B",
"t  c #645A59",
"y  c #64585A",
"u  c #655C5D",
"i  c #675C5F",
"p  c #6C5A5E",
"a  c #79515A",
"s  c #77595C",
"d  c #64644B",
"f  c #6A6A50",
"g  c #6B6A55",
"h  c #69645E",
"j  c #6A645F",
"k  c #6C6D5B",
"l  c #727255",
"z  c #665F60",
"x  c #735B62",
"c  c #6E6365",
"v  c #706F60",
"b  c #746769",
"n  c #77696B",
"m  c #76686D",
"M  c #7A6A6D",
"N  c #7C706F",
"B  c #796F71",
"V  c #707272",
"C  c #757979",
"Z  c #7C7878",
"A  c #865C4D",
"S  c #884350",
"D  c #A34050",
"F  c #817B5E",
"G  c #827E63",
"H  c #837C68",
"J  c #816E70",
"K  c #806F72",
"L  c #857275",
"P  c #857577",
"I  c #807278",
"U  c #867678",
"Y  c #80797A",
"T  c #857A7A",
"R  c #8A7A7D",
"E  c #8F7B7C",
"W  c #8C7D7E",
"Q  c #9F7A71",
"!  c #997E77",
"~  c #BD656C",
"^  c #C85664",
"/  c #C86771",
"(  c #868667",
")  c #868865",
"_  c #868669",
"`  c #8B8B68",
"'  c #8A886B",
"]  c #9A8D69",
"[  c #8C906A",
"{  c #858271",
"}  c #8C8870",
"|  c #8F8B70",
" . c #8B8876",
".. c #9B957E",
"X. c #9F9A78",
"o. c #A8857A",
"O. c #A4A67A",
"+. c #C79D7E",
"@. c #8D7D80",
"#. c #8F7F80",
"$. c #937F80",
"%. c #917E84",
"&. c #8D8081",
"*. c #8F8384",
"=. c #8D8487",
"-. c #938183",
";. c #918287",
":. c #958284",
">. c #948286",
",. c #978889",
"<. c #998888",
"1. c #9A8B8C",
"2. c #9B8B8D",
"3. c #998B8F",
"4. c #9B8E8E",
"5. c #9D8D8E",
"6. c #9F8C8E",
"7. c #9F8D8E",
"8. c #9C8E8F",
"9. c #9A918E",
"0. c #9A8D91",
"q. c #9B8D91",
"w. c #9C8F95",
"e. c #9B9195",
"r. c #9F949A",
"t. c #A08F90",
"y. c #A59295",
"u. c #A49396",
"i. c #A79396",
"p. c #A39497",
"a. c #A99296",
"s. c #A89496",
"d. c #A39599",
"f. c #A2969C",
"g. c #A99799",
"h. c #A79B9B",
"j. c #A29E9E",
"k. c #AC999A",
"l. c #AD9B9C",
"z. c #A89C9E",
"x. c #AB9D9F",
"c. c #A8A881",
"v. c #ADAB83",
"b. c #BBAB83",
"n. c #B0B086",
"m. c #B6B987",
"M. c #B5B48A",
"N. c #AFAC91",
"B. c #BABD91",
"V. c #BFBF95",
"C. c #B3B199",
"Z. c #A89CA0",
"A. c #B19EA0",
"S. c #AAA0A1",
"D. c #ACA1A5",
"F. c #AEA4A6",
"G. c #AFA4A8",
"H. c #B2A1A1",
"J. c #B0A3A4",
"K. c #B5A1A4",
"L. c #B5A3A5",
"P. c #B7A7A7",
"I. c #B5AFA5",
"U. c #B6A5A8",
"Y. c #B9A5A8",
"T. c #BBA9AA",
"R. c #BDAAAB",
"E. c #BDBBAC",
"W. c #B8B0B4",
"Q. c #BCB7BC",
"!. c #C88287",
"~. c #C7B18E",
"^. c #C2AA93",
"/. c #C9BE9E",
"(. c #C0AEB1",
"). c #C0B0B2",
"_. c #C1B0B2",
"`. c #C0B1B3",
"'. c #C5B3B5",
"]. c #CBB1B3",
"[. c #CAB7BB",
"{. c #C3BDBE",
"}. c #CBB8BC",
"|. c #CCBDBF",
" X c #C1C892",
".X c #C8CF98",
"XX c #CCCC98",
"oX c #CED09A",
"OX c #D2D69B",
"+X c #D5D69F",
"@X c #DED29D",
"#X c #DEC3A2",
"$X c #D0D5A0",
"%X c #D6D5A0",
"&X c #D3DAA3",
"*X c #D9DBA3",
"=X c #D8DDA2",
"-X c #D2D2A9",
";X c #C2C0B2",
":X c #CBC6BF",
">X c #CAC8B9",
",X c #E0DCAB",
"<X c #E4E5AB",
"1X c #E7E8AD",
"2X c #E9EBAD",
"3X c #EDEEB0",
"4X c #EBECB4",
"5X c #E5E0B8",
"6X c #E8E7BF",
"7X c #ECEDBB",
"8X c #E8E8BF",
"9X c #F0F1B6",
"0X c #F4F5BB",
"qX c #D3C5C6",
"wX c #D4C4C6",
"eX c #D5C5C7",
"rX c #D5C5C8",
"tX c #D5D3C1",
"yX c None",
/* pixels */
"yXyXyXyXyXyXyXyXyXyXyXyXyXyXyXyXyXyXyXyXyXyXyXyXyXyXyXyXyXyXyXyX",
"yXyXyX    +     yXyXyXyXyXyXyXyXyXyXyXyXyXyXyXyXyXyXyXyXyXyXyXyX",
"yXyX  : yXyXyXl   yXyXyXyXyXyXyXyXyXyXyXyXyXyXyXyXyXyXyXyXyXyXyX",
"yX  > yXyXyXyXyX`   yXyXyXyXyXyXyXyXyXyXyXyXyXyXyXyXyXyXyXyXyXyX",
"yX  yXyXyXyXyXyXyX# yXyXyXyXyXyXyXyXyXyXyXyXyXyXyXyXyXyXyXyXyXyX",
"yXO yXyXyXyXyXyXyX= yXyXyXyXyXyXyXyXyXyXyXyXyXyXyXyXyXyXyXyXyXyX",
"yX  yXyXyXyX] yXyX# yXyXyXyXyXyXyXyXyXyXyXyXyXyXyXyXyXyXyXyXyXyX",
"yX  f yXyXb.& X.B.: yXyXyXyXyXyXyXyXyXyXyXyXyXyXyXyXyXyXyXyXyXyX",
"yXyX  f yX,Xs p < m.yXyXyXyXyXyXyXyXyXyXyXyXyXyXyXyXyXyXyXyXyXyX",
"yXyXyX  = _ N x.=.k OXyXyXyXyXyXyXyXyXyXyXyXyXyXyXyXyXyXyXyXyXyX",
"yXyXyXyXyXO.z `.qXr.v 2XyXyXyXyXyXyXyXyXyXyXyXyXyXyXyXyXyXyXyXyX",
"yXyXyXyXyX=Xh J.qXrXf.{ 3XyXyXyXyXyXyXyXyXyXyXyXyXyXyXyXyXyXyXyX",
"yXyXyXyXyXyX9.-.`.rX|.t. .oXyXyXyXyXyXyXyXyXyXyXyXyXyXyXyXyXyXyX",
"yXyXyXyXyXyX| I Y.}.}.`.2.c [ yXyXyXyXyXyXyXyXyXyXyXyXyXyXyXyXyX",
"yXyXyXyXyXyXf b g.T.(.(.J.q.8 ) yXyXyXyXyXyXyXyXyXyXyXyXyXyXyXyX",
"yXyXyXyXyXyXM.b 2.A.J.Y.T.Y.p.u ` yXyXyXyXyXyXyXyXyXyXyXyXyXyXyX",
"yXyXyXyXyXyX+Xu R s.k.p.E x.A.f.i c.yXyXyXyXyXyXyXyXyXyXyXyXyXyX",
"yXyXyXyXyXyXXX2 U 6.s.R 6 #.6.9 B c M.yXyXyXyXyXyXyXyXyXyXyXyXyX",
"yXyXyXyXyXyX+X% n w n 2.j.2. .C Y R u c.yXyXyXyXyXyXyXyXyXyXyXyX",
"yXyXyXyXyXyXyXH y V Z R -.-.<.j.t.$.J e ` yXyXyXyXyXyXyXyXyXyXyX",
"yXyXyXyXyXyXyX| 1 -.9.2.x.J.J.J.Z.f.q.I 3 5 2XyXyXyXyXyXyXyXyXyX",
"yXyXyXyXyXyXyXG $ J x.W.Q.:X:X;XE.I.e.q.-.p 4 <XyXyXyXyXyXyXyXyX",
"yXyXyXyXyXyXyXF * g.{.tX8X8XyXyXyX3X-XC.9.$.x q =XyXyXyXyXyXyXyX",
"yXyXyXyXyXyXyX@X~ ].5X0XyXyXyXyXyXyXyXyX9XN.L a 0  XyXyXyXyXyXyX",
"yXyXyXyXyXyXyXyX!.5XyXyXyXyXyXyXyXyXyXyXyXyX/.! S , XXyXyXyXyXyX",
"yXyXyXyXyXyXyXyXyXyXyXyXyXyXyXyXyXyXyXyXyXyXyX%XQ D A yXyXyXyXyX",
"yXyXyXyXyXyXyXyXyXyXyXyXyXyXyXyXyXyXyXyXyXyXyXyX&Xo.^ b.yXyXyXyX",
"yXyXyXyXyXyXyXyXyXyXyXyXyXyXyXyXyXyXyXyXyXyXyXyXyXyX#X/ ~.yXyXyX",
"yXyXyXyXyXyXyXyXyXyXyXyXyXyXyXyXyXyXyXyXyXyXyXyXyXyXyX/.^.yXyXyX",
"yXyXyXyXyXyXyXyXyXyXyXyXyXyXyXyXyXyXyXyXyXyXyXyXyXyXyXyXyXyXyXyX",
"yXyXyXyXyXyXyXyXyXyXyXyXyXyXyXyXyXyXyXyXyXyXyXyXyXyXyXyXyXyXyXyX",
"yXyXyXyXyXyXyXyXyXyXyXyXyXyXyXyXyXyXyXyXyXyXyXyXyXyXyXyXyXyXyXyX"
};
