/* XPM */
static char *ThreeDCursor_red[] = {
/* columns rows colors chars-per-pixel */
"32 32 212 2 ",
"   c gray7",
".  c #121313",
"X  c #131313",
"o  c #171212",
"O  c #161616",
"+  c #1C1212",
"@  c #1F1212",
"#  c #171F1F",
"$  c #181818",
"%  c gray11",
"&  c #1D1D1D",
"*  c #1C1F1F",
"=  c gray12",
"-  c #261214",
";  c #281C1D",
":  c #351214",
">  c #3B1214",
",  c #3F1214",
"<  c #39181A",
"1  c gray13",
"2  c #222222",
"3  c #232323",
"4  c gray14",
"5  c gray15",
"6  c #272727",
"7  c #282828",
"8  c #2A2A2A",
"9  c gray17",
"0  c #2C2C2C",
"q  c #2F2F2F",
"w  c #273535",
"e  c gray19",
"r  c #313131",
"t  c #343131",
"y  c gray21",
"u  c #383B3B",
"i  c #3A3A3A",
"p  c gray23",
"a  c #3E3E3E",
"s  c #411215",
"d  c #4F1215",
"f  c #48181A",
"g  c #541217",
"h  c #5A1214",
"j  c #5C1216",
"k  c #641214",
"l  c #681215",
"z  c #711215",
"x  c #751217",
"c  c #771317",
"v  c #6E1D22",
"b  c #741F23",
"n  c #492324",
"m  c #4D2F2F",
"M  c #5A272A",
"N  c #5D3135",
"B  c #6C3032",
"V  c #7E3134",
"C  c #7D393C",
"Z  c #5D3E42",
"A  c #6F3B40",
"S  c #364040",
"D  c #3B4949",
"F  c #414141",
"G  c #454241",
"H  c #424C4A",
"J  c #484848",
"K  c #494848",
"L  c #494949",
"P  c #4B4B4B",
"I  c #4C4D4D",
"U  c #554747",
"Y  c #4D5454",
"T  c #4F5D5D",
"R  c #545252",
"E  c #555555",
"W  c #565656",
"Q  c #565C5C",
"!  c #585858",
"~  c #5A5A5A",
"^  c #5C5A5A",
"/  c #5D5A5A",
"(  c #595E5E",
")  c gray36",
"_  c #5F5F5F",
"`  c #6A4042",
"'  c #6F4C4D",
"]  c #77474A",
"[  c #614F51",
"{  c #7B4D51",
"}  c #685655",
"|  c #6F5657",
" . c #6E5C5C",
".. c #735555",
"X. c #755455",
"o. c #755C5C",
"O. c #5A5F61",
"+. c #5D6162",
"@. c #5E6262",
"#. c gray39",
"$. c #636666",
"%. c gray40",
"&. c #696161",
"*. c #666868",
"=. c #67696A",
"-. c #676B6B",
";. c #666C6B",
":. c #676E6E",
">. c DimGray",
",. c #6A6A6A",
"<. c #6B6B6A",
"1. c gray42",
"2. c #696F6E",
"3. c #686F6F",
"4. c gray43",
"5. c #706162",
"6. c #756767",
"7. c #736F6F",
"8. c #776F6F",
"9. c #6E7070",
"0. c gray44",
"q. c gray45",
"w. c #747474",
"e. c gray46",
"r. c #777777",
"t. c #797576",
"y. c gray47",
"u. c #797979",
"i. c #7B7B7B",
"p. c #797C7C",
"a. c #797D7D",
"s. c #7B7E7E",
"d. c #7C7C7C",
"f. c gray49",
"g. c #7E7E7E",
"h. c #841217",
"j. c #931218",
"k. c #971219",
"l. c #8D2126",
"z. c #813F44",
"x. c #7B8180",
"c. c #7E8080",
"v. c #7D8282",
"b. c #808080",
"n. c #818181",
"m. c gray51",
"M. c #818585",
"N. c gray52",
"B. c #868686",
"V. c #888684",
"C. c #868888",
"Z. c #888888",
"A. c #898989",
"S. c gray54",
"D. c #8B8B8B",
"F. c #8D8D8D",
"G. c #8E8E8E",
"H. c gray56",
"J. c gray57",
"K. c #939292",
"L. c #939393",
"P. c #969494",
"I. c #979797",
"U. c #989A9A",
"Y. c #9A9A9A",
"T. c #9B9B9B",
"R. c gray61",
"E. c #9D9D9D",
"W. c gray62",
"Q. c #9F9F9F",
"!. c #A2A2A2",
"~. c gray64",
"^. c #A4A6A6",
"/. c gray65",
"(. c #A7A7A7",
"). c gray66",
"_. c #A9A9A9",
"`. c #ABA9A9",
"'. c #AAAAAA",
"]. c gray67",
"[. c #ABACAC",
"{. c gray68",
"}. c #AFAFAF",
"|. c gray69",
" X c #B1B1B1",
".X c #B2B2B2",
"XX c #B4B4B4",
"oX c gray71",
"OX c #B5B6B6",
"+X c #B6B6B6",
"@X c #B7B7B7",
"#X c gray72",
"$X c #B9B9B9",
"%X c #BBBBBB",
"&X c #BCBCBC",
"*X c gray74",
"=X c gray",
"-X c #C0C0C0",
";X c #C1C1C1",
":X c gray76",
">X c #C3C2C2",
",X c gray77",
"<X c #C6C6C6",
"1X c #C6C8C8",
"2X c #C8C8C8",
"3X c gray79",
"4X c gray80",
"5X c #CDCDCD",
"6X c #CECECE",
"7X c gray82",
"8X c gray83",
"9X c None",
/* pixels */
"9X9X9X9X9X9X9X9X9X9X9X9X9X9X9X9X9X9X9X9X9X9X9X9X9X9X9X9X9X9X9X9X",
"9X`.9X9X9X9X9X9X9X9X9X9X9X9X9X9X9X9X9X9X9X9X9X9X9X9X9X9X9X9X9X9X",
"9Xc.8X/ 9X9X9X9X9X9X9X9X9X9X9X9X9X9X9X9X9X9X9X9X9X9X9X9X9X9X9X9X",
"9X9X1X:Xt.9X9X9X9X9X9X9X9X9X9X9X9X9X9X9X9X9X9X9X9X9X9X9X9X9X9X9X",
"9X9XM.8XOXV.U 9X9X9X9X9X9X9X9X9X9X9X9X9X9X9X9X9X9X9X9X9X9X9X9X9X",
"9X9XJ #X5X`.C. .9X9X9X9X9X9X9X9X9X9X9X9X9X9X9X9X9X9X9X9X9X9X9X9X",
"9X9X9XH.:X5X^.M.7.m 9X9X9X9X9X9X9X9X9X9X9X9X9X9X9X9X9X9X9X9X9X9X",
"9X9X9X/ ^.:X5XQ.c.8.Z 9X9X9X9X9X9X9X9X9X9X9X9X9X9X9X9X9X9X9X9X9X",
"9X9X9X0 F.`.7X:XW.a.7.' 9X9X9X9X9X9X9X9X9X9X9X9X9X9X9X9X9X9X9X9X",
"9X9X9X9X#.W.#X5X&XW.c.1...n 9X9X9X9X9X9X9X9X9X9X9X9X9X9X9X9X9X9X",
"9X9X9X9Xy Z.W.:X5X#XK.a.3.o.N 9X9X9X9X9X9X9X9X9X9X9X9X9X9X9X9X9X",
"9X9X9X9XX 1.H.`.:X:XOXK.a.3.5.A 9X9X9X9X9X9X9X9X9X9X9X9X9X9X9X9X",
"9X9X9X9X9Xi M.K.@X5X:X`.K.a.-. .] 9X9X9X9X9X9X9X9X9X9X9X9X9X9X9X",
"9X9X9X9X9XX 1.V.W.@X:X&X(.H.a.1.#.{ M 9X9X9X9X9X9X9X9X9X9X9X9X9X",
"9X9X9X9X9X9Xi M.F.(.&X:X#XQ.F.u.-.+...B 9X9X9X9X9X9X9X9X9X9X9X9X",
"9X9X9X9X9X9X% 1.c.K.OX&X:XOXW.M.r.-.O...C 9X9X9X9X9X9X9X9X9X9X9X",
"9X9X9X9X9X9X9XJ d.M.W.OX&XOX`.W.M.e.5.( } z.9X9X9X9X9X9X9X9X9X9X",
"9X9X9X9X9X9X9X% 1.a.F.(.OX&XOX`.K.M.9.-.Q [ V k 9X9X9X9X9X9X9X9X",
"9X9X9X9X9X9X9X9XK t.b.K.`.OXOX`.W.F.a.1.Y y f k.9X9X9X9X9X9X9X9X",
"9X9X9X9X9X9X9X9X1 1.t.M.W.^.}.OX(.K.e.I % + > l j 9X9X9X9X9X9X9X",
"9X9X9X9X9X9X9X9X9XI e.a.F.W.(.`.W.e.i X + : g x 9X9X9X9X9X9X9X9X",
"9X9X9X9X9X9X9X9X9X2 5.e.a.F.I.I.9.0 X X - s h.j 9X9X9X9X9X9X9X9X",
"9X9X9X9X9X9X9X9X9X9XI 3.r.M.C.#.2 X X X X d j.9X9X9X9X9X9X9X9X9X",
"9X9X9X9X9X9X9X9X9X9X7 #.1.e./ % X X X X # < h.9X9X9X9X9X9X9X9X9X",
"9X9X9X9X9X9X9X9X9X9X9XI 1./ % X X X X y i w v 9X9X9X9X9X9X9X9X9X",
"9X9X9X9X9X9X9X9X9X9X9X2 W 0       X 7 i I D J l.9X9X9X9X9X9X9X9X",
"9X9X9X9X9X9X9X9X9X9X9X9X2 X X       * J R / Q ` x 9X9X9X9X9X9X9X",
"9X9X9X9X9X9X9X9X9X9X9X9XX X           q / 1.+.D b 9X9X9X9X9X9X9X",
"9X9X9X9X9X9X9X9X9X9X9X9X9X9XX 9X9XX X X i / W S ; x 9X9X9X9X9X9X",
"9X9X9X9X9X9X9X9X9X9X9X9X9X9X9X9X9X9X9XX % 0 i 2 X s 9X9X9X9X9X9X",
"9X9X9X9X9X9X9X9X9X9X9X9X9X9X9X9X9X9X9X9X9XX X X   9X9X9X9X9X9X9X",
"9X9X9X9X9X9X9X9X9X9X9X9X9X9X9X9X9X9X9X9X9X9XX X 9X9X9X9X9X9X9X9X"
};
