/* XPM */
static const char *ThreeD_red_v2[] = {
/* columns rows colors chars-per-pixel */
"32 32 226 2 ",
"   c #070808",
".  c #090909",
"X  c #0B0A0A",
"o  c #0B0B0B",
"O  c #100F0F",
"+  c #150E0E",
"@  c #1C0F11",
"#  c #0C1212",
"$  c #101010",
"%  c #111010",
"&  c #111111",
"*  c #101112",
"=  c gray7",
"-  c #131313",
";  c #131414",
":  c gray8",
">  c #151515",
",  c gray9",
"<  c #1A1313",
"1  c #1F1211",
"2  c #151E1D",
"3  c #181818",
"4  c #1B1B1B",
"5  c gray11",
"6  c #1D1D1D",
"7  c gray12",
"8  c #301113",
"9  c #1B2323",
"0  c gray13",
"q  c #222222",
"w  c #222323",
"e  c #232323",
"r  c #252020",
"t  c #232424",
"y  c gray15",
"u  c #272D2D",
"i  c #2A2A2A",
"p  c gray17",
"a  c #2C2C2C",
"s  c #2D2D2D",
"d  c #2F2F2F",
"f  c #2B3E3D",
"g  c #303636",
"h  c #373737",
"j  c #3D3334",
"k  c #3D3335",
"l  c gray22",
"z  c #393A3A",
"x  c #3A3A3A",
"c  c #3F3F3F",
"v  c #401012",
"b  c #471115",
"n  c #4C1114",
"m  c #4C1719",
"M  c #591518",
"N  c #601217",
"B  c #641215",
"V  c #681216",
"C  c #7B1117",
"Z  c #7E1217",
"A  c #731318",
"S  c #70151B",
"D  c #6E1E22",
"F  c #721F22",
"G  c #7D1C20",
"H  c #502629",
"J  c #5E2B2D",
"K  c #453132",
"L  c #4A3030",
"P  c #583035",
"I  c #692328",
"U  c #6E3336",
"Y  c #69383B",
"T  c #6D3C3D",
"R  c #513F40",
"E  c #3E5654",
"W  c gray26",
"Q  c #434444",
"!  c #444445",
"~  c #474646",
"^  c #4A4748",
"/  c #484848",
"(  c gray29",
")  c #4C4C4C",
"_  c gray30",
"`  c #4C4F4F",
"'  c #584D4D",
"]  c #4C5858",
"[  c #4B5F5F",
"{  c #4F5D5D",
"}  c #535353",
"|  c #585858",
" . c #595958",
".. c #5B5B5B",
"X. c #5B5C5C",
"o. c #5F5F5F",
"O. c #634342",
"+. c #6A4447",
"@. c #6F4849",
"#. c #704547",
"$. c #794347",
"%. c #685455",
"&. c #6E5556",
"*. c #675C5D",
"=. c #715455",
"-. c #715758",
";. c #63605F",
":. c #695F61",
">. c #5C6362",
",. c #626060",
"<. c #626262",
"1. c #626263",
"2. c #646464",
"3. c gray40",
"4. c #676767",
"5. c #6D6363",
"6. c #6E6263",
"7. c #6B6463",
"8. c #676867",
"9. c #636A6A",
"0. c #626A6B",
"q. c #636B6B",
"w. c #676868",
"e. c #676C6C",
"r. c #6D6B6A",
"t. c #6E6B6C",
"y. c #6C6C6C",
"u. c #6D6D6D",
"i. c #6D6F6F",
"p. c #6F6F6F",
"a. c #756766",
"s. c #6A6F70",
"d. c #6F7373",
"f. c gray44",
"g. c #707171",
"h. c gray45",
"j. c #737575",
"k. c #747474",
"l. c gray46",
"z. c #767676",
"x. c #767677",
"c. c #787576",
"v. c #767B7B",
"b. c #777B7B",
"n. c #797878",
"m. c #797979",
"M. c gray48",
"N. c #7B7B7B",
"B. c #7D7979",
"V. c #7C7C7C",
"C. c #7D7E7E",
"Z. c gray50",
"A. c #8A1117",
"S. c #818181",
"D. c gray51",
"F. c #868585",
"G. c #868787",
"H. c gray53",
"J. c #888383",
"K. c #888888",
"L. c #8B8B8B",
"P. c #888F8F",
"I. c #8A8E8E",
"U. c #8D8F8F",
"Y. c #8E8E8E",
"T. c #8A9190",
"R. c #8E9090",
"E. c #909090",
"W. c #919292",
"Q. c #929292",
"!. c #939393",
"~. c #939595",
"^. c #959595",
"/. c gray59",
"(. c #979696",
"). c #979797",
"_. c #989898",
"`. c gray60",
"'. c #9A9999",
"]. c #999B9B",
"[. c #9A9A9A",
"{. c #9B9B9B",
"}. c #9D9D9D",
"|. c #9FA3A3",
" X c #A0A0A0",
".X c gray63",
"XX c gray64",
"oX c #A4A4A4",
"OX c #A4A8A8",
"+X c #A9A9A9",
"@X c #A8AAAA",
"#X c #AAAAAA",
"$X c gray67",
"%X c gray68",
"&X c #ADAEAD",
"*X c #AEAEAE",
"=X c #AFAEAE",
"-X c #AFAEAF",
";X c #AFAFAF",
":X c gray69",
">X c #B1B1B1",
",X c #B2B2B2",
"<X c gray70",
"1X c #B4B4B4",
"2X c gray71",
"3X c #B6B6B6",
"4X c gray72",
"5X c gray73",
"6X c #BCBCBC",
"7X c gray75",
"8X c #C1C1C1",
"9X c #C2C3C3",
"0X c gray77",
"qX c #C6C6C6",
"wX c gray78",
"eX c #C9CACA",
"rX c #CACACA",
"tX c #CBCBCB",
"yX c #CDCBCB",
"uX c #CBCCCC",
"iX c #CCCDCC",
"pX c #CDCDCD",
"aX c #CECDCD",
"sX c #CECECE",
"dX c #D0D2D2",
"fX c None",
/* pixels */
"fXfXfXfXfXfXfXfXfXfXfXfXfXfXfXfXfXfXfXfXfXfXfXfXfXfXfXfXfXfXfXfX",
"fXfXfXfXfXfXfXfXfXfXfXfXfXfXfXfXfXfXfXfXfXfXfXfXfXfXfXfXfXfXfXfX",
"fXfXfXfXfXfXfXfXfXfXfXfXfXfXfXfXfXfXfXfXfXfXfXfXfXfXfXfXfXfXfXfX",
"fXfXfXfXfXfXfXfXfXfXfXfXfXfXfXfXfXfXfXfXfXfXfXfXfXfXfXfXfXfXfXfX",
"fXfXfXfXfXfXfXfXfXfXfXfXfXfXfXfXfXfXfXfXfXfXfXfXfXfXfXfXfXfXfXfX",
"fXfXfXfXfXoX,.fXfXfXfXfXfXfXfXfXfXfXfXfXfXfXfXfXfXfXfXfXfXfXfXfX",
"fXfXfXfXfX~.dXc.K fXfXfXfXfXfXfXfXfXfXfXfXfXfXfXfXfXfXfXfXfXfXfX",
"fXfXfXfXfXz 9XpX(.6.fXfXfXfXfXfXfXfXfXfXfXfXfXfXfXfXfXfXfXfXfXfX",
"fXfXfXfXfXfXg.pXwX|.D.' fXfXfXfXfXfXfXfXfXfXfXfXfXfXfXfXfXfXfXfX",
"fXfXfXfXfXfXi {.pXpXoXY.a.^ fXfXfXfXfXfXfXfXfXfXfXfXfXfXfXfXfXfX",
"fXfXfXfXfXfXfX..@XpXpX@XT.M.%.L fXfXfXfXfXfXfXfXfXfXfXfXfXfXfXfX",
"fXfXfXfXfXfXfXi M.>XpXpX@XP.M.5.O.fXfXfXfXfXfXfXfXfXfXfXfXfXfXfX",
"fXfXfXfXfXfXfXfX/ E.>XpXsX>XY.v.r.-.P fXfXfXfXfXfXfXfXfXfXfXfXfX",
"fXfXfXfXfXfXfXfXt ,.{.@XpXpX:XY.v.r.5.+.H fXfXfXfXfXfXfXfXfXfXfX",
"fXfXfXfXfXfXfXfXfXl M._.:XpX9X:X~.Z.s.0.-.Y fXfXfXfXfXfXfXfXfXfX",
"fXfXfXfXfXfXfXfXfX> _ Y.(.>XwX9X@X~.D.g.0.5.@.J fXfXfXfXfXfXfXfX",
"fXfXfXfXfXfXfXfXfXfXt r.Y.{.4X9X7X:X(.J.g.0.,.=.Y I fXfXfXfXfXfX",
"fXfXfXfXfXfXfXfXfXfXfXz g.J.{.>X9X5X@X{.D.v.0.9.:.$.F fXfXfXfXfX",
"fXfXfXfXfXfXfXfXfXfXfX> } M.Y. X5X5X4X@X_.J.M.0.] k S C fXfXfXfX",
"fXfXfXfXfXfXfXfXfXfXfXfXi r.Z.~.oX>X4X>XoX(.D...i < n B fXfXfXfX",
"fXfXfXfXfXfXfXfXfXfXfXfXfXQ g.D.E.oX:X>X@X(.;.t = 8 N V fXfXfXfX",
"fXfXfXfXfXfXfXfXfXfXfXfXfX3 ..M.D.E. X@X{.5.t o < n C fXfXfXfXfX",
"fXfXfXfXfXfXfXfXfXfXfXfXfXfXh r.M.D.~.~.i.t   o > v A.fXfXfXfXfX",
"fXfXfXfXfXfXfXfXfXfXfXfXfXfXfX_ g.c.Z.t.i o > > 2 r A fXfXfXfXfX",
"fXfXfXfXfXfXfXfXfXfXfXfXfXfXfX3 *.i.r.k o > > t h f K G fXfXfXfX",
"fXfXfXfXfXfXfXfXfXfXfXfXfXfXfXfXl 0._ > o o > i ~ _ E @.D fXfXfX",
"fXfXfXfXfXfXfXfXfXfXfXfXfXfXfXfXfXc t > > > > t Q *.0.[ U M fXfX",
"fXfXfXfXfXfXfXfXfXfXfXfXfXfXfXfXfX2 > o > O o > i ..r.{ h m fXfX",
"fXfXfXfXfXfXfXfXfXfXfXfXfXfXfXfXfXfX> > > fXfXfX> i Q Q 9 < fXfX",
"fXfXfXfXfXfXfXfXfXfXfXfXfXfXfXfXfXfXfXfXfXfXfXfXfX> 3 3 * * fXfX",
"fXfXfXfXfXfXfXfXfXfXfXfXfXfXfXfXfXfXfXfXfXfXfXfXfXfX> > > fXfXfX",
"fXfXfXfXfXfXfXfXfXfXfXfXfXfXfXfXfXfXfXfXfXfXfXfXfXfXfXfXfXfXfXfX"
};
