/* XPM */
static char *ThreeDCursor_32[] = {
/* columns rows colors chars-per-pixel */
"32 32 215 2 ",
"   c black",
".  c #000001",
"X  c #010101",
"o  c #030300",
"O  c #020202",
"+  c #070700",
"@  c #040404",
"#  c #070707",
"$  c #090900",
"%  c #0E0D00",
"&  c #030309",
"*  c #070709",
"=  c gray3",
"-  c #090909",
";  c gray4",
":  c #0B0B0B",
">  c #0C0C0C",
",  c gray5",
"<  c #0E0E0E",
"1  c gray6",
"2  c #100F07",
"3  c #1A1900",
"4  c #1F1E00",
"5  c #1D1C04",
"6  c #0F0F1A",
"7  c #101010",
"8  c #111111",
"9  c gray7",
"0  c #131313",
"q  c #151515",
"w  c #161616",
"e  c gray9",
"r  c #191917",
"t  c #1B1B1B",
"y  c #1C1C1F",
"u  c #1E1E1E",
"i  c gray12",
"p  c #222100",
"a  c #242200",
"s  c #2F2D00",
"d  c #292804",
"f  c #2A2A0C",
"g  c #333000",
"h  c #383700",
"j  c #3A3700",
"k  c #39360F",
"l  c #2E2D15",
"z  c #3B3917",
"x  c #1B1B23",
"c  c #1F1F2A",
"v  c gray13",
"b  c gray14",
"n  c #262724",
"m  c #25262C",
"M  c gray16",
"N  c #2A2A29",
"B  c #2A2A2A",
"V  c gray17",
"C  c #2C2C2D",
"Z  c #3B3921",
"A  c #343428",
"S  c #3E3D2F",
"D  c #2E2E33",
"F  c #2F2F3B",
"G  c #333332",
"H  c #343434",
"J  c #353535",
"K  c gray21",
"L  c #35353A",
"P  c #37373C",
"I  c gray22",
"U  c #3B3B38",
"Y  c #3A3A39",
"T  c #3A3A3A",
"R  c #3A393E",
"E  c #3C3B3F",
"W  c gray24",
"Q  c #3C3C3F",
"!  c #414000",
"~  c #444200",
"^  c #4C4B00",
"/  c #4F4C00",
"(  c #494608",
")  c #4E4C09",
"_  c #514F01",
"`  c #5C5900",
"'  c #484716",
"]  c #4A471F",
"[  c #575517",
"{  c #56541D",
"}  c #696500",
"|  c #6C6800",
" . c #63600A",
".. c #464523",
"X. c #4A4A2C",
"o. c #595622",
"O. c #515028",
"+. c #54522E",
"@. c #434434",
"#. c #4A4935",
"$. c #4D4D34",
"%. c #45453E",
"&. c #49493A",
"*. c #4B4A3E",
"=. c #504F33",
"-. c #50503A",
";. c gray25",
":. c #404042",
">. c gray26",
",. c #424244",
"<. c #434347",
"1. c #444346",
"2. c gray27",
"3. c #464646",
"4. c #464746",
"5. c gray28",
"6. c #4F4F43",
"7. c #424348",
"8. c #434349",
"9. c #44444A",
"0. c #45464A",
"q. c #494949",
"w. c #49494B",
"e. c #4B4B4B",
"r. c #4D4D4A",
"t. c gray30",
"y. c #4E4E4E",
"u. c gray31",
"i. c #51514A",
"p. c #505050",
"a. c #515151",
"s. c #535250",
"d. c gray32",
"f. c #535353",
"g. c #535355",
"h. c #535356",
"j. c gray33",
"k. c #555555",
"l. c #545457",
"z. c #565656",
"x. c gray34",
"c. c #545559",
"v. c #575758",
"b. c #56565B",
"n. c #585858",
"m. c gray35",
"M. c #5B5B5B",
"N. c #59595D",
"B. c #5D5D5D",
"V. c #5E5F5C",
"C. c gray37",
"Z. c #5E5E5F",
"A. c #5F5F5F",
"S. c #606060",
"D. c gray38",
"F. c #626262",
"G. c gray39",
"H. c #646464",
"J. c #656565",
"K. c gray40",
"L. c #676767",
"P. c #696968",
"I. c DimGray",
"U. c #6B6B6A",
"Y. c #6C6C6C",
"T. c #6D6D6E",
"R. c gray43",
"E. c #6F6F6F",
"W. c #717171",
"Q. c #727272",
"!. c gray45",
"~. c #747474",
"^. c #767676",
"/. c #777777",
"(. c #787879",
"). c #797979",
"_. c gray48",
"`. c #7B7B7B",
"'. c #7C7C7C",
"]. c gray49",
"[. c #7E7E7C",
"{. c #7E7E7E",
"}. c #7E7E7F",
"|. c #808080",
" X c #818181",
".X c gray51",
"XX c #838383",
"oX c #848484",
"OX c gray52",
"+X c #868686",
"@X c #868687",
"#X c gray53",
"$X c #888888",
"%X c #898989",
"&X c gray54",
"*X c #8B8B8B",
"=X c gray55",
"-X c #8D8D8D",
";X c #8E8E8E",
":X c gray56",
">X c #909090",
",X c gray57",
"<X c #929292",
"1X c #939392",
"2X c gray58",
"3X c gray59",
"4X c #969697",
"5X c #979797",
"6X c #989898",
"7X c #9B9B9B",
"8X c gray61",
"9X c #9D9D9D",
"0X c #9F9FA0",
"qX c #A2A2A2",
"wX c None",
/* pixels */
"wXwXwXwXwXwXwXwXwXwXwXwXwXwXwXwXwXwXwXwXwXwXwXwXwXwXwXwXwXwXwXwX",
"wX[.wXwXwXwXwXwXwXwXwXwXwXwXwXwXwXwXwXwXwXwXwXwXwXwXwXwXwXwXwXwX",
"wXv.qXI wXwXwXwXwXwXwXwXwXwXwXwXwXwXwXwXwXwXwXwXwXwXwXwXwXwXwXwX",
"wXwX4X4Xs.wXwXwXwXwXwXwXwXwXwXwXwXwXwXwXwXwXwXwXwXwXwXwXwXwXwXwX",
"wXwXC.0X@XC.A wXwXwXwXwXwXwXwXwXwXwXwXwXwXwXwXwXwXwXwXwXwXwXwXwX",
"wXwXM $X8X[.Z.&.wXwXwXwXwXwXwXwXwXwXwXwXwXwXwXwXwXwXwXwXwXwXwXwX",
"wXwXwXH.:X8X[.v.6.l wXwXwXwXwXwXwXwXwXwXwXwXwXwXwXwXwXwXwXwXwXwX",
"wXwXwXL [.6X6X!.b.i.Z wXwXwXwXwXwXwXwXwXwXwXwXwXwXwXwXwXwXwXwXwX",
"wXwXwX0 H.[.8X4X!.v.q.X.wXwXwXwXwXwXwXwXwXwXwXwXwXwXwXwXwXwXwXwX",
"wXwXwXwX2.T.$X8X$XT.v.q.$.f wXwXwXwXwXwXwXwXwXwXwXwXwXwXwXwXwXwX",
"wXwXwXwXu C.!.4X8X@XT.s.8.-.z wXwXwXwXwXwXwXwXwXwXwXwXwXwXwXwXwX",
"wXwXwXwXX 2.H.[.4X6X XT.v.8.&.] wXwXwXwXwXwXwXwXwXwXwXwXwXwXwXwX",
"wXwXwXwXwXu C.H.@X4X4X[.H.s.8.2.O.wXwXwXwXwXwXwXwXwXwXwXwXwXwXwX",
"wXwXwXwXwXX 2.C.!.$X4X:X[.H.s.8.2.O.k wXwXwXwXwXwXwXwXwXwXwXwXwX",
"wXwXwXwXwXwXv C.H.[.$X6X@X!.H.s.8.E =.' wXwXwXwXwXwXwXwXwXwXwXwX",
"wXwXwXwXwXwXX q.C.H.@X$X,X@XE.S.s.2.R &.{ wXwXwXwXwXwXwXwXwXwXwX",
"wXwXwXwXwXwXwXv s.C.E.@X,X$X[.T.C.q.2.L @.o.wXwXwXwXwXwXwXwXwXwX",
"wXwXwXwXwXwXwX& w.v.H.^.#X$X@X[.L.C.u.E K I [ ~ wXwXwXwXwXwXwXwX",
"wXwXwXwXwXwXwXwXM s.v.I.[.@X@X|.!.H.s.q.D e s | wXwXwXwXwXwXwXwX",
"wXwXwXwXwXwXwXwX- w.u.C.T.[.|.@X(.L.s.D , X 4 ~ j wXwXwXwXwXwXwX",
"wXwXwXwXwXwXwXwXwXM s.s.H.T.[.[.E.s.u X X 4 g / wXwXwXwXwXwXwXwX",
"wXwXwXwXwXwXwXwXwX, 2.u.s.H.T.T.q.0 X X % a ` j wXwXwXwXwXwXwXwX",
"wXwXwXwXwXwXwXwXwXwXM q.s.C.C.2., X X X X s } wXwXwXwXwXwXwXwXwX",
"wXwXwXwXwXwXwXwXwXwX1 2.q.q.R X X X X X & 4 ` wXwXwXwXwXwXwXwXwX",
"wXwXwXwXwXwXwXwXwXwXwXM q.K , X X X X u x e ( wXwXwXwXwXwXwXwXwX",
"wXwXwXwXwXwXwXwXwXwXwX, K 0 X X X X 7 v M m v  .wXwXwXwXwXwXwXwX",
"wXwXwXwXwXwXwXwXwXwXwXwX, X X X X X , v K R F .._ wXwXwXwXwXwXwX",
"wXwXwXwXwXwXwXwXwXwXwXwXX X X X X X X 0 K 2.R m ) wXwXwXwXwXwXwX",
"wXwXwXwXwXwXwXwXwXwXwXwXwXwXX wXwXX X X v R K x % / wXwXwXwXwXwX",
"wXwXwXwXwXwXwXwXwXwXwXwXwXwXwXwXwXwXwXX X 0 i , X a wXwXwXwXwXwX",
"wXwXwXwXwXwXwXwXwXwXwXwXwXwXwXwXwXwXwXwXwXX X X X wXwXwXwXwXwXwX",
"wXwXwXwXwXwXwXwXwXwXwXwXwXwXwXwXwXwXwXwXwXwXX X wXwXwXwXwXwXwXwX"
};
