/* XPM */
static char *ThreeDCursor[] = {
/* columns rows colors chars-per-pixel */
"64 64 126 2 ",
"   c #000000",
".  c #0C0C00",
"X  c #00000B",
"o  c #07080C",
"O  c #0B0B0B",
"+  c #0F1000",
"@  c #131300",
"#  c #181700",
"$  c #171800",
"%  c #1B1A01",
"&  c #090710",
"*  c #0C0C13",
"=  c #0D0D18",
"-  c #131314",
";  c #1C1E14",
":  c #14151A",
">  c #1C1C1C",
",  c #201D00",
"<  c #232201",
"1  c #282600",
"2  c #2C2A01",
"3  c #2A290C",
"4  c #312F00",
"5  c #333200",
"6  c #383600",
"7  c #3C3B01",
"8  c #28291E",
"9  c #31321A",
"0  c #3C3A1C",
"q  c #161722",
"w  c #1B1B22",
"e  c #232324",
"r  c #25252A",
"t  c #27282E",
"y  c #2B2A2B",
"u  c #34332D",
"i  c #3C372D",
"p  c #3C3B2C",
"a  c #252530",
"s  c #282933",
"d  c #2F3036",
"f  c #333334",
"g  c #36363A",
"h  c #3B3B3C",
"j  c #413C02",
"k  c #413F21",
"l  c #403E39",
"z  c #3F4026",
"x  c #3F4033",
"c  c #434100",
"v  c #484600",
"b  c #4D4B00",
"n  c #44420E",
"m  c #4A4708",
"M  c #524A0A",
"N  c #545200",
"B  c #5A5600",
"V  c #5E5B00",
"C  c #5B590C",
"Z  c #434016",
"A  c #4C4A12",
"S  c #4C4A1D",
"D  c #504F10",
"F  c #555214",
"G  c #5C5716",
"H  c #5F5C14",
"J  c #53511C",
"K  c #5A591A",
"L  c #615E02",
"P  c #625F10",
"I  c #605C1B",
"U  c #626000",
"Y  c #6A6704",
"T  c #6C6800",
"R  c #716C01",
"E  c #757100",
"W  c #7B7600",
"Q  c #7B7900",
"!  c #666216",
"~  c #474627",
"^  c #4C4A2C",
"/  c #545322",
"(  c #585624",
")  c #5C5B24",
"_  c #54542C",
"`  c #58572A",
"'  c #444333",
"]  c #474833",
"[  c #4C4B33",
"{  c #43433B",
"}  c #49473C",
"|  c #4B4C3B",
" . c #514F30",
".. c #504E3E",
"X. c #535234",
"o. c #52523C",
"O. c #3E3E42",
"+. c #444444",
"@. c #4B4C43",
"#. c #454549",
"$. c #4C4C4C",
"%. c #545244",
"&. c #52524E",
"*. c #4D4D51",
"=. c #545454",
"-. c #5A5A55",
";. c #575759",
":. c #5C5C5C",
">. c #5F5F60",
",. c #636363",
"<. c #676768",
"1. c #6B6B6B",
"2. c #737373",
"3. c #7B7B7B",
"4. c #827D01",
"5. c #868000",
"6. c #888300",
"7. c #838383",
"8. c #8B8B8B",
"9. c #939393",
"0. c #9B9B9B",
"q. c #A6A6A7",
"w. c #A7A7A8",
"e. c #AFAFAF",
"r. c #BBBBBB",
"t. c None",
/* pixels */
"t.t.t.t.t.t.t.t.t.t.t.t.t.t.t.t.t.t.t.t.t.t.t.t.t.t.t.t.t.t.t.t.t.t.t.t.t.t.t.t.t.t.t.t.t.t.t.t.t.t.t.t.t.t.t.t.t.t.t.t.t.t.t.t.",
"t.t.t.t.t.t.t.t.t.t.t.t.t.t.t.t.t.t.t.t.t.t.t.t.t.t.t.t.t.t.t.t.t.t.t.t.t.t.t.t.t.t.t.t.t.t.t.t.t.t.t.t.t.t.t.t.t.t.t.t.t.t.t.t.",
"t.t.q.-.t.t.t.t.t.t.t.t.t.t.t.t.t.t.t.t.t.t.t.t.t.t.t.t.t.t.t.t.t.t.t.t.t.t.t.t.t.t.t.t.t.t.t.t.t.t.t.t.t.t.t.t.t.t.t.t.t.t.t.t.",
"t.t.2.r.1.t.t.t.t.t.t.t.t.t.t.t.t.t.t.t.t.t.t.t.t.t.t.t.t.t.t.t.t.t.t.t.t.t.t.t.t.t.t.t.t.t.t.t.t.t.t.t.t.t.t.t.t.t.t.t.t.t.t.t.",
"t.t.  e.w.2.u t.t.t.t.t.t.t.t.t.t.t.t.t.t.t.t.t.t.t.t.t.t.t.t.t.t.t.t.t.t.t.t.t.t.t.t.t.t.t.t.t.t.t.t.t.t.t.t.t.t.t.t.t.t.t.t.t.",
"t.t.t.3.w.0.2.$.. t.t.t.t.t.t.t.t.t.t.t.t.t.t.t.t.t.t.t.t.t.t.t.t.t.t.t.t.t.t.t.t.t.t.t.t.t.t.t.t.t.t.t.t.t.t.t.t.t.t.t.t.t.t.t.",
"t.t.t.g 0.q.8.2.-.i t.t.t.t.t.t.t.t.t.t.t.t.t.t.t.t.t.t.t.t.t.t.t.t.t.t.t.t.t.t.t.t.t.t.t.t.t.t.t.t.t.t.t.t.t.t.t.t.t.t.t.t.t.t.",
"t.t.t.  7.0.0.8.1.:.%.% t.t.t.t.t.t.t.t.t.t.t.t.t.t.t.t.t.t.t.t.t.t.t.t.t.t.t.t.t.t.t.t.t.t.t.t.t.t.t.t.t.t.t.t.t.t.t.t.t.t.t.t.",
"t.t.t.t.&.8.0.0.7.2.>.&.i t.t.t.t.t.t.t.t.t.t.t.t.t.t.t.t.t.t.t.t.t.t.t.t.t.t.t.t.t.t.t.t.t.t.t.t.t.t.t.t.t.t.t.t.t.t.t.t.t.t.t.",
"t.t.t.t.e 3.8.0.9.3.<.>.&.[ t.t.t.t.t.t.t.t.t.t.t.t.t.t.t.t.t.t.t.t.t.t.t.t.t.t.t.t.t.t.t.t.t.t.t.t.t.t.t.t.t.t.t.t.t.t.t.t.t.t.",
"t.t.t.t.  ,.7.9.0.9.3.<.>.*.%.0 t.t.t.t.t.t.t.t.t.t.t.t.t.t.t.t.t.t.t.t.t.t.t.t.t.t.t.t.t.t.t.t.t.t.t.t.t.t.t.t.t.t.t.t.t.t.t.t.",
"t.t.t.t.t.+.2.7.0.0.9.3.<.:.*.%.^ t.t.t.t.t.t.t.t.t.t.t.t.t.t.t.t.t.t.t.t.t.t.t.t.t.t.t.t.t.t.t.t.t.t.t.t.t.t.t.t.t.t.t.t.t.t.t.",
"t.t.t.t.t.o 1.2.8.0.0.8.3.,.;.*.#.X.4 t.t.t.t.t.t.t.t.t.t.t.t.t.t.t.t.t.t.t.t.t.t.t.t.t.t.t.t.t.t.t.t.t.t.t.t.t.t.t.t.t.t.t.t.t.",
"t.t.t.t.t.t.&.2.3.9.0.0.8.2.,.:.*.$.o.Z t.t.t.t.t.t.t.t.t.t.t.t.t.t.t.t.t.t.t.t.t.t.t.t.t.t.t.t.t.t.t.t.t.t.t.t.t.t.t.t.t.t.t.t.",
"t.t.t.t.t.t.y <.2.7.9.0.0.8.2.,.-.*.#.o.S t.t.t.t.t.t.t.t.t.t.t.t.t.t.t.t.t.t.t.t.t.t.t.t.t.t.t.t.t.t.t.t.t.t.t.t.t.t.t.t.t.t.t.",
"t.t.t.t.t.t.  ;.1.2.8.0.0.9.7.2.,.:.&.#.#.` 2 t.t.t.t.t.t.t.t.t.t.t.t.t.t.t.t.t.t.t.t.t.t.t.t.t.t.t.t.t.t.t.t.t.t.t.t.t.t.t.t.t.",
"t.t.t.t.t.t.t.h 1.1.3.8.0.0.9.7.2.>.-.*.#.#.` n t.t.t.t.t.t.t.t.t.t.t.t.t.t.t.t.t.t.t.t.t.t.t.t.t.t.t.t.t.t.t.t.t.t.t.t.t.t.t.t.",
"t.t.t.t.t.t.t.  >.<.1.7.9.0.0.8.7.2.>.-.$.#.#.X.S t.t.t.t.t.t.t.t.t.t.t.t.t.t.t.t.t.t.t.t.t.t.t.t.t.t.t.t.t.t.t.t.t.t.t.t.t.t.t.",
"t.t.t.t.t.t.t.t.+.,.1.2.8.0.0.0.8.3.2.>.;.$.+.#.X./ t.t.t.t.t.t.t.t.t.t.t.t.t.t.t.t.t.t.t.t.t.t.t.t.t.t.t.t.t.t.t.t.t.t.t.t.t.t.",
"t.t.t.t.t.t.t.t.- :.>.1.3.8.0.0.9.8.3.1.>.-.&.+.+.| ` 7 t.t.t.t.t.t.t.t.t.t.t.t.t.t.t.t.t.t.t.t.t.t.t.t.t.t.t.t.t.t.t.t.t.t.t.t.",
"t.t.t.t.t.t.t.t.  #.>.,.1.7.9.0.0.9.8.2.1.>.&.*.#.#.| X.A t.t.t.t.t.t.t.t.t.t.t.t.t.t.t.t.t.t.t.t.t.t.t.t.t.t.t.t.t.t.t.t.t.t.t.",
"t.t.t.t.t.t.t.t.t.> :.>.<.2.7.9.0.9.9.8.3.<.>.&.*.#.O.| X.J t.t.t.t.t.t.t.t.t.t.t.t.t.t.t.t.t.t.t.t.t.t.t.t.t.t.t.t.t.t.t.t.t.t.",
"t.t.t.t.t.t.t.t.t.  $.:.>.1.3.8.9.9.9.9.7.2.1.>.&.*.#.O.| [ ( 4 t.t.t.t.t.t.t.t.t.t.t.t.t.t.t.t.t.t.t.t.t.t.t.t.t.t.t.t.t.t.t.t.",
"t.t.t.t.t.t.t.t.t.t.e :.:.,.1.7.9.0.0.9.8.7.2.<.>.&.*.#.O.{ [ ` n t.t.t.t.t.t.t.t.t.t.t.t.t.t.t.t.t.t.t.t.t.t.t.t.t.t.t.t.t.t.t.",
"t.t.t.t.t.t.t.t.t.t.  $.:.>.<.2.7.9.9.9.9.9.3.2.<.:.-.*.#.O.O.| ` F t.t.t.t.t.t.t.t.t.t.t.t.t.t.t.t.t.t.t.t.t.t.t.t.t.t.t.t.t.t.",
"t.t.t.t.t.t.t.t.t.t.t.y &.:.>.1.2.8.9.9.9.9.8.2.2.<.:.&.&.#.O.x | ` K t.t.t.t.t.t.t.t.t.t.t.t.t.t.t.t.t.t.t.t.t.t.t.t.t.t.t.t.t.",
"t.t.t.t.t.t.t.t.t.t.t.  $.;.:.,.1.7.8.9.9.9.9.7.2.2.<.;.&.*.#.O.h {  .) j t.t.t.t.t.t.t.t.t.t.t.t.t.t.t.t.t.t.t.t.t.t.t.t.t.t.t.",
"t.t.t.t.t.t.t.t.t.t.t.  g &.;.>.<.2.7.9.9.9.9.8.7.2.2.,.:.*.&.#.O.O.{ ^ ) D t.t.t.t.t.t.t.t.t.t.t.t.t.t.t.t.t.t.t.t.t.t.t.t.t.t.",
"t.t.t.t.t.t.t.t.t.t.t.t.  $.&.:.>.1.2.8.8.9.9.9.8.7.2.2.>.;.&.*.#.O.h { [ ` G t.t.t.t.t.t.t.t.t.t.t.t.t.t.t.t.t.t.t.t.t.t.t.t.t.",
"t.t.t.t.t.t.t.t.t.t.t.t.  g ;.;.;.<.2.2.8.8.9.8.8.8.3.2.1.,.:.*.$.#.O.h l { ` I 6 t.t.t.t.t.t.t.t.t.t.t.t.t.t.t.t.t.t.t.t.t.t.t.",
"t.t.t.t.t.t.t.t.t.t.t.t.t.  $.&.-.>.<.3.7.8.8.9.9.8.7.3.2.<.,.-.*.$.+.O.h h { ` ) M t.t.t.t.t.t.t.t.t.t.t.t.t.t.t.t.t.t.t.t.t.t.",
"t.t.t.t.t.t.t.t.t.t.t.t.t.  h &.&.:.>.1.3.3.8.9.8.9.8.7.2.2.<.>.;.&.$.+.O.g i { ` ) C t.t.t.t.t.t.t.t.t.t.t.t.t.t.t.t.t.t.t.t.t.",
"t.t.t.t.t.t.t.t.t.t.t.t.t.t.o $.&.;.;.<.2.2.7.8.8.9.8.7.7.2.1.,.>.;.&.*.#.O.g g ' ^ ) C t.t.t.t.t.t.t.t.t.t.t.t.t.t.t.t.t.t.t.t.",
"t.t.t.t.t.t.t.t.t.t.t.t.t.t.  g &.&.;.>.<.2.7.7.8.8.8.8.7.3.3.1.,.:.&.$.#.+.h g f ' ' ( ! c t.t.t.t.t.t.t.t.t.t.t.t.t.t.t.t.t.t.",
"t.t.t.t.t.t.t.t.t.t.t.t.t.t.t.- *.*.;.;.,.1.2.7.8.8.8.8.8.7.3.2.1.,.:.&.$.$.+.O.g g i ~ J C b t.t.t.t.t.t.t.t.t.t.t.t.t.t.t.t.t.",
"t.t.t.t.t.t.t.t.t.t.t.t.t.t.t.  h *.&.&.:.,.1.2.7.7.8.8.8.7.7.3.1.<.:.:.&.$.+.O.g g u i ~ A U V t.t.t.t.t.t.t.t.t.t.t.t.t.t.t.t.",
"t.t.t.t.t.t.t.t.t.t.t.t.t.t.t.t.> $.*.&.:.>.<.2.3.3.7.8.8.7.7.3.2.1.,.:.&.&.#.+.h d y 8 3 6 N 4.U t.t.t.t.t.t.t.t.t.t.t.t.t.t.t.",
"t.t.t.t.t.t.t.t.t.t.t.t.t.t.t.t.  h *.&.&.;.,.1.2.3.7.7.8.7.7.3.2.2.1.,.:.*.$.h g w - . # 4 v T 6.t.t.t.t.t.t.t.t.t.t.t.t.t.t.t.",
"t.t.t.t.t.t.t.t.t.t.t.t.t.t.t.t.t.> $.$.&.;.:.,.1.3.3.7.7.7.7.3.3.2.1.,.:.&.+.g > o   . , 1 4 v R t.t.t.t.t.t.t.t.t.t.t.t.t.t.t.",
"t.t.t.t.t.t.t.t.t.t.t.t.t.t.t.t.t.  h $.$.&.-.:.<.1.2.3.7.7.7.7.3.2.<.>.&.+.y o     . % % < 2 7 U t.t.t.t.t.t.t.t.t.t.t.t.t.t.t.",
"t.t.t.t.t.t.t.t.t.t.t.t.t.t.t.t.t.t.e #.$.*.&.:.>.<.2.2.3.7.7.3.3.1.,.:.{ e o     . @ % < 4 j b b t.t.t.t.t.t.t.t.t.t.t.t.t.t.t.",
"t.t.t.t.t.t.t.t.t.t.t.t.t.t.t.t.t.t.  x $.$.&.;.:.,.<.1.2.3.3.2.1.,.&.h >       . + @ , 6 c b N t.t.t.t.t.t.t.t.t.t.t.t.t.t.t.t.",
"t.t.t.t.t.t.t.t.t.t.t.t.t.t.t.t.t.t.t.r +.$.$.*.;.:.,.1.1.2.1.1.,.&.g -         . @ % 2 c B V 7 t.t.t.t.t.t.t.t.t.t.t.t.t.t.t.t.",
"t.t.t.t.t.t.t.t.t.t.t.t.t.t.t.t.t.t.t.  O.#.$.&.&.;.>.,.1.1.1.>.$.y o         . . . % 4 N R b t.t.t.t.t.t.t.t.t.t.t.t.t.t.t.t.t.",
"t.t.t.t.t.t.t.t.t.t.t.t.t.t.t.t.t.t.t.t.y #.#.$.$.&.:.:.>.,.:.+.y                   @ 7 R R t.t.t.t.t.t.t.t.t.t.t.t.t.t.t.t.t.t.",
"t.t.t.t.t.t.t.t.t.t.t.t.t.t.t.t.t.t.t.t.  x +.#.$.&.&.:.&.&.+.e                     + j 5.N t.t.t.t.t.t.t.t.t.t.t.t.t.t.t.t.t.t.",
"t.t.t.t.t.t.t.t.t.t.t.t.t.t.t.t.t.t.t.t.t.y +.+.#.$.$.$.*.O.e                       . 4 R t.t.t.t.t.t.t.t.t.t.t.t.t.t.t.t.t.t.t.",
"t.t.t.t.t.t.t.t.t.t.t.t.t.t.t.t.t.t.t.t.t.o x +.+.+.$.$.h e                     - * o % b Q t.t.t.t.t.t.t.t.t.t.t.t.t.t.t.t.t.t.",
"t.t.t.t.t.t.t.t.t.t.t.t.t.t.t.t.t.t.t.t.t.t.y O.+.+.+.h e                   o > > : = - 3 R V t.t.t.t.t.t.t.t.t.t.t.t.t.t.t.t.t.",
"t.t.t.t.t.t.t.t.t.t.t.t.t.t.t.t.t.t.t.t.t.t.. h h h h e                   O > > e w w : ; m 4.t.t.t.t.t.t.t.t.t.t.t.t.t.t.t.t.t.",
"t.t.t.t.t.t.t.t.t.t.t.t.t.t.t.t.t.t.t.t.t.t.t.y i h e                   . > > e e e e w w 9 Y R t.t.t.t.t.t.t.t.t.t.t.t.t.t.t.t.",
"t.t.t.t.t.t.t.t.t.t.t.t.t.t.t.t.t.t.t.t.t.t.t.o g y -                   o : e e y u g y r r S 4.t.t.t.t.t.t.t.t.t.t.t.t.t.t.t.t.",
"t.t.t.t.t.t.t.t.t.t.t.t.t.t.t.t.t.t.t.t.t.t.t.t.> :                       ; e e y u g g d a u ! Q t.t.t.t.t.t.t.t.t.t.t.t.t.t.t.",
"t.t.t.t.t.t.t.t.t.t.t.t.t.t.t.t.t.t.t.t.t.t.t.t.                          o > y g g h h O.g t 0 R V t.t.t.t.t.t.t.t.t.t.t.t.t.t.",
"t.t.t.t.t.t.t.t.t.t.t.t.t.t.t.t.t.t.t.t.t.t.t.t.t.                          - e g h +.#.+.g a e Z Q t.t.t.t.t.t.t.t.t.t.t.t.t.t.",
"t.t.t.t.t.t.t.t.t.t.t.t.t.t.t.t.t.t.t.t.t.t.t.t.t.t.                          > y h +.{ h g y q ; N W t.t.t.t.t.t.t.t.t.t.t.t.t.",
"t.t.t.t.t.t.t.t.t.t.t.t.t.t.t.t.t.t.t.t.t.t.t.t.t.t.t.t.    t.t.t.              y h h g g u y > & , R t.t.t.t.t.t.t.t.t.t.t.t.t.",
"t.t.t.t.t.t.t.t.t.t.t.t.t.t.t.t.t.t.t.t.t.t.t.t.t.t.t.t.t.t.t.t.t.t.            o y u g g y r - o   7 N t.t.t.t.t.t.t.t.t.t.t.t.",
"t.t.t.t.t.t.t.t.t.t.t.t.t.t.t.t.t.t.t.t.t.t.t.t.t.t.t.t.t.t.t.t.t.t.t.t.t.          e e e e > o     < b t.t.t.t.t.t.t.t.t.t.t.t.",
"t.t.t.t.t.t.t.t.t.t.t.t.t.t.t.t.t.t.t.t.t.t.t.t.t.t.t.t.t.t.t.t.t.t.t.t.t.t.t.        - ; - o       % t.t.t.t.t.t.t.t.t.t.t.t.t.",
"t.t.t.t.t.t.t.t.t.t.t.t.t.t.t.t.t.t.t.t.t.t.t.t.t.t.t.t.t.t.t.t.t.t.t.t.t.t.t.t.                    t.t.t.t.t.t.t.t.t.t.t.t.t.t.",
"t.t.t.t.t.t.t.t.t.t.t.t.t.t.t.t.t.t.t.t.t.t.t.t.t.t.t.t.t.t.t.t.t.t.t.t.t.t.t.t.t.t.              t.t.t.t.t.t.t.t.t.t.t.t.t.t.t.",
"t.t.t.t.t.t.t.t.t.t.t.t.t.t.t.t.t.t.t.t.t.t.t.t.t.t.t.t.t.t.t.t.t.t.t.t.t.t.t.t.t.t.t.            t.t.t.t.t.t.t.t.t.t.t.t.t.t.t.",
"t.t.t.t.t.t.t.t.t.t.t.t.t.t.t.t.t.t.t.t.t.t.t.t.t.t.t.t.t.t.t.t.t.t.t.t.t.t.t.t.t.t.t.          t.t.t.t.t.t.t.t.t.t.t.t.t.t.t.t."
};
